<?xml version="1.0" encoding="UTF-8" standalone="no"?>
<svg
   version="1.0"
   width="146.533pt"
   height="144.457pt"
   viewBox="0 0 146.533 144.457"
   preserveAspectRatio="xMidYMid"
   id="svg1"
   sodipodi:docname="cog-white.svg"
   inkscape:version="1.3.2 (091e20e, 2023-11-25, custom)"
   xmlns:inkscape="http://www.inkscape.org/namespaces/inkscape"
   xmlns:sodipodi="http://sodipodi.sourceforge.net/DTD/sodipodi-0.dtd"
   xmlns="http://www.w3.org/2000/svg"
   xmlns:svg="http://www.w3.org/2000/svg">
  <defs
     id="defs1" />
  <sodipodi:namedview
     id="namedview1"
     pagecolor="#ffffff"
     bordercolor="#000000"
     borderopacity="0.25"
     inkscape:showpageshadow="2"
     inkscape:pageopacity="0.0"
     inkscape:pagecheckerboard="0"
     inkscape:deskcolor="#d1d1d1"
     inkscape:document-units="pt"
     inkscape:zoom="4.42875"
     inkscape:cx="133.33333"
     inkscape:cy="115.38244"
     inkscape:window-width="1350"
     inkscape:window-height="1212"
     inkscape:window-x="167"
     inkscape:window-y="421"
     inkscape:window-maximized="0"
     inkscape:current-layer="svg1"
     showgrid="false" />
  <path
     d="m 59.442764,2.8066342 c -2.9,0.8 -3.2,1.4 -3.8,6.1 -0.9,6.5999998 -4.7,13.2999998 -8.9,15.4999998 -4.7,2.5 -12.3,2.3 -17.5,-0.5 -2.4,-1.2 -5.2,-2 -6.2,-1.7 -3.2,1 -13.9999994,16.5 -13.9999994,20 0,1 1.7999994,3.7 3.8999994,6 5,5.4 6.8,11.3 5.1,16.8 -1.4,4.7 -7.8,11.3 -11.8999994,12.2 -4.1,0.9 -5,2.8 -4,8.4 1,5.3 4.7,15.999996 6.1,17.799996 0.7,0.8 3.4999994,1.3 7.7999994,1.2 10.6,-0.2 16.4,3.5 18.7,12.1 1,3.6 1,4.3 -0.2,12.1 l -0.7,4.7 4.4,2.6 c 5.2,3 15.1,6.6 18.3,6.6 1.6,0 3.1,-1.5 5.3,-4.9 7.1,-11.5 20,-12.1 29,-1.5 2,2.4 4.4,4.4 5.3,4.4 2.6,0 10.099996,-3.4 16.399996,-7.4 6,-3.9 6.4,-5.1 4,-10.9 -2.1,-5.1 -1.9,-9.5 0.8,-14.7 2.9,-5.9 7.4,-8.399996 16.1,-8.999996 l 7,-0.5 1.7,-5.9 c 2.4,-8.1 3.4,-18.3 2,-20 -0.7,-0.8 -2.7,-1.7 -4.7,-2 -3.9,-0.8 -9.8,-5.5 -12,-9.7 -1.6,-3.2 -1.8,-9.6 -0.5,-13.2 0.5,-1.4 2.4,-4.1 4.1,-6.1 2.4,-2.6 3.1,-4.2 2.6,-5.9 -0.8,-3.2 -10.6,-14.8 -14.2,-16.9 -2.9,-1.7 -3.1,-1.7 -6.5,0.6 -4.7,3.2 -10.5,4.7 -15.299996,3.9 -5.4,-0.8 -12.2,-7.6 -13.1,-13 -1.4,-8.3999998 -1.3,-8.2999998 -12.2,-8.1999998 -5.4,0 -11.2,0.5 -12.9,1 z M 120.34276,31.506634 c 2.1,1.9 2.2,4.1 0.1,7 -3,4.4 -10.4,1.6 -10.4,-3.9 0,-2.4 4.7,-5.9 6.8,-5.2 0.9,0.3 2.5,1.3 3.5,2.1 z m -36.999996,18.9 c 4.8,1.9 12,9.9 13.5,15.1 2.7,9 0.9,17.1 -5.5,24.2 -10.1,11.299996 -26.5,11.299996 -36.6,0 -8.9,-9.9 -9,-22.8 -0.4,-32.6 7.8,-8.8 17.7,-11.1 29,-6.7 z"
     id="path1"
     style="fill:#ffffff;fill-opacity:1;stroke:#333333;stroke-width:3.5;stroke-dasharray:none;stroke-opacity:1" />
</svg>
