<?xml version="1.0" encoding="UTF-8" standalone="no"?>
<svg
   version="1.0"
   width="200pt"
   height="153pt"
   viewBox="0 0 200 153"
   preserveAspectRatio="xMidYMid"
   id="svg1"
   sodipodi:docname="cognitmart-logo.svg"
   xml:space="preserve"
   inkscape:version="1.3.2 (091e20e, 2023-11-25, custom)"
   xmlns:inkscape="http://www.inkscape.org/namespaces/inkscape"
   xmlns:sodipodi="http://sodipodi.sourceforge.net/DTD/sodipodi-0.dtd"
   xmlns="http://www.w3.org/2000/svg"
   xmlns:svg="http://www.w3.org/2000/svg"><defs
     id="defs1" /><sodipodi:namedview
     id="namedview1"
     pagecolor="#ffffff"
     bordercolor="#000000"
     borderopacity="0.25"
     inkscape:showpageshadow="2"
     inkscape:pageopacity="0.0"
     inkscape:pagecheckerboard="0"
     inkscape:deskcolor="#d1d1d1"
     inkscape:document-units="pt"
     inkscape:zoom="2.214375"
     inkscape:cx="242.28055"
     inkscape:cy="114.47925"
     inkscape:window-width="2560"
     inkscape:window-height="1377"
     inkscape:window-x="1912"
     inkscape:window-y="-8"
     inkscape:window-maximized="1"
     inkscape:current-layer="svg1" /><g
     id="g1"
     transform="translate(-1.6934801,-48.433531)">
    <path
       class="cog"
       d="m 109.96959,55.049106 c -2.9,0.8 -3.2,1.4 -3.8,6.1 -0.9,6.6 -4.7,13.3 -8.899999,15.5 -4.7,2.5 -12.3,2.3 -17.5,-0.5 -2.4,-1.2 -5.2,-2 -6.2,-1.7 -3.2,1 -14,16.5 -14,20 0,1 1.8,3.7 3.9,6.000004 5,5.4 6.8,11.3 5.1,16.8 -1.4,4.7 -7.8,11.3 -11.9,12.2 -4.1,0.9 -5,2.8 -4,8.4 1,5.3 4.7,16 6.1,17.8 0.7,0.8 3.5,1.3 7.8,1.2 10.6,-0.2 16.4,3.5 18.7,12.1 1,3.6 1,4.3 -0.2,12.1 l -0.7,4.7 4.4,2.6 c 5.2,3 15.099999,6.6 18.299999,6.6 1.6,0 3.1,-1.5 5.3,-4.9 7.1,-11.5 20,-12.1 29,-1.5 2,2.4 4.4,4.4 5.3,4.4 2.6,0 10.09999,-3.4 16.39999,-7.4 6,-3.9 6.4,-5.1 4,-10.9 -2.1,-5.1 -1.9,-9.5 0.8,-14.7 2.9,-5.9 7.4,-8.4 16.1,-9 l 7,-0.5 1.7,-5.9 c 2.4,-8.1 3.4,-18.3 2,-20 -0.7,-0.8 -2.7,-1.7 -4.7,-2 -3.9,-0.8 -9.8,-5.5 -12,-9.7 -1.6,-3.2 -1.8,-9.6 -0.5,-13.200004 0.5,-1.4 2.4,-4.1 4.1,-6.1 2.4,-2.6 3.1,-4.2 2.6,-5.9 -0.8,-3.2 -10.6,-14.8 -14.2,-16.9 -2.9,-1.7 -3.1,-1.7 -6.5,0.6 -4.7,3.2 -10.5,4.7 -15.29999,3.9 -5.4,-0.8 -12.2,-7.6 -13.1,-13 -1.4,-8.4 -1.3,-8.3 -12.2,-8.2 -5.4,0 -11.2,0.5 -12.9,1 z m 60.89999,28.7 c 2.1,1.9 2.2,4.1 0.1,7 -3,4.4 -10.4,1.6 -10.4,-3.9 0,-2.4 4.7,-5.9 6.8,-5.2 0.9,0.3 2.5,1.3 3.5,2.1 z m -36.99999,18.900004 c 4.8,1.9 12,9.9 13.5,15.1 2.7,9 0.9,17.1 -5.5,24.2 -10.1,11.3 -26.5,11.3 -36.6,0 -8.899999,-9.9 -8.999999,-22.8 -0.4,-32.6 7.8,-8.8 17.7,-11.100004 29,-6.7 z"
       id="path1"
       style="fill:#1a96f3;fill-opacity:1;stroke:#333333;stroke-width:3.5;stroke-dasharray:none;stroke-opacity:1" />
        <g
       id="g13"
       transform="matrix(0.20507877,-0.15362231,0.15362231,0.20507877,-44.09159,118.45426)"><g
         id="g11">
	<path
   style="fill:#fce469"
   d="M 264.632,74.48 256,83.112 247.368,74.48 c -15.367,-15.367 -15.367,-40.282 0,-55.649 L 256,10.2 l 8.632,8.632 c 15.367,15.367 15.367,40.281 0,55.648 z"
   id="path1-5" />
	<path
   style="fill:#fce469"
   d="M 284.158,429.995 H 256 v -28.158 c 0,-50.131 40.64,-90.771 90.771,-90.771 h 28.158 v 28.158 c 0,50.131 -40.64,90.771 -90.771,90.771 z"
   id="path2" />
	<path
   style="fill:#fce469"
   d="M 227.843,429.995 H 256 v -28.158 c 0,-50.131 -40.64,-90.771 -90.771,-90.771 h -28.158 v 28.158 c 0.001,50.131 40.64,90.771 90.772,90.771 z"
   id="path3" />
	<path
   style="fill:#fce469"
   d="M 280.077,323.132 H 256 v -24.076 c 0,-42.866 34.75,-77.616 77.616,-77.616 h 24.076 v 24.076 c 0,42.866 -34.75,77.616 -77.615,77.616 z"
   id="path4" />
	<path
   style="fill:#fce469"
   d="M 231.924,323.132 H 256 V 299.056 C 256,256.19 221.25,221.44 178.384,221.44 h -24.076 v 24.076 c 0,42.866 34.749,77.616 77.616,77.616 z"
   id="path5" />
	<path
   style="fill:#fce469"
   d="M 274.035,234.366 H 256 v -18.035 c 0,-38.432 26.029,-58.139 58.139,-58.139 h 18.034 v 18.035 c 0,32.11 -26.03,58.139 -58.138,58.139 z"
   id="path6" />
	<path
   style="fill:#fce469"
   d="M 237.966,234.366 H 256 v -18.035 c 0,-38.432 -26.029,-58.139 -58.139,-58.139 h -18.035 v 18.035 c 0.001,32.11 26.031,58.139 58.14,58.139 z"
   id="path7" />
	<path
   style="fill:#fce469"
   d="M 271.421,167.026 H 256 v -15.421 c 0,-27.455 22.257,-49.713 49.713,-49.713 h 15.421 v 0 c 0,18.62 -7.121,36.641 -20.231,49.862 -8.249,8.317 -18.445,15.272 -29.482,15.272 z"
   id="path8" />
	<path
   style="fill:#fce469"
   d="M 240.579,167.026 H 256 v -15.421 c 0,-27.455 -22.257,-49.713 -49.713,-49.713 h -15.421 v 0 c 0,18.62 7.12,36.641 20.231,49.862 8.249,8.317 18.446,15.272 29.482,15.272 z"
   id="path9" />
	<path
   style="fill:#fce469"
   d="M 266.974,110.73 H 256 V 99.756 c 0,-19.539 15.839,-35.379 35.379,-35.379 h 10.974 v 10.974 c 0,19.539 -15.839,35.379 -35.379,35.379 z"
   id="path10" />
	<path
   style="fill:#fce469"
   d="M 245.026,110.73 H 256 V 99.756 C 256,80.217 240.161,64.377 220.621,64.377 h -10.974 v 10.974 c 0,19.539 15.839,35.379 35.379,35.379 z"
   id="path11" />
</g><path
         style="fill:#333333;fill-opacity:1"
         d="m 374.49547,304.33526 h -26.741 c 12.308,-15.116 19.705,-34.384 19.705,-55.352 v -24.076 c 0,-5.633 -4.566,-10.199 -10.199,-10.199 h -24.077 c -0.314,0 -0.623,0.02 -0.936,0.023 6.148,-10.252 9.693,-22.236 9.693,-35.035 v -18.035 c 0,-5.633 -4.566,-10.199 -10.199,-10.199 h -15.041 c 9.119,-13.36501 14.2,-29.54701 14.2,-46.10101 0,-5.632996 -4.566,-10.198996 -10.199,-10.198996 h -11.623 c 1.957,-5.077 3.041,-10.584 3.041,-16.342 v -10.976 c 0,-5.633 -4.566,-10.199 -10.199,-10.199 h -10.974 c -1.927,0 -3.821,0.135 -5.685,0.367 2.427,-15.169 -2.182,-31.256 -13.849,-42.925 l -8.632,-8.6319999 c -3.983,-3.983 -10.441,-3.983 -14.425,0 l -8.632,8.6319999 c -11.669,11.669 -16.277,27.756 -13.849,42.925 -1.864,-0.234 -3.758,-0.367 -5.685,-0.367 h -10.974 c -5.633,0 -10.199,4.566 -10.199,10.199 v 10.974 c 0,5.758 1.084,11.265 3.041,16.342 h -11.623 c -5.633,0 -10.199,4.566 -10.199,10.198996 0,16.554 5.081,32.736 14.2,46.10101 h -15.041 c -5.633,0 -10.199,4.566 -10.199,10.199 v 18.035 c 0,12.8 3.545,24.783 9.693,35.035 -0.313,-0.003 -0.622,-0.023 -0.936,-0.023 h -24.076 c -5.633,0 -10.199,4.566 -10.199,10.199 v 24.076 c 0,20.968 7.396,40.235 19.705,55.352 h -26.741 c -5.633,0 -10.199,4.566 -10.199,10.199 v 28.157 c 0,55.675 45.295,100.97 100.97,100.97 h 17.957 v 61.608 c 0,5.633 4.566,10.199 10.199,10.199 5.633,0 10.199,-4.566 10.199,-10.199 v -61.607 h 17.958 c 55.675,0 100.97,-45.295 100.97,-100.97 v -28.158 c -10e-4,-5.63 -4.567,-10.197 -10.2,-10.197 z m -118.929,-123.642 h 0.354 c -0.121,0.192 -0.235,0.389 -0.354,0.581 -0.119,-0.193 -0.234,-0.39 -0.354,-0.581 z m 0,67.34 h 8.827 c -3.334,4.2 -6.296,8.704 -8.827,13.475 -2.531,-4.77 -5.493,-9.275 -8.827,-13.475 z m 0,88.766 h 16.67 c -6.673,7.213 -12.309,15.396 -16.67,24.314 -4.36,-8.918 -9.996,-17.102 -16.67,-24.314 z m 91.493,-101.692 v 13.877 c 0,37.173 -30.243,67.417 -67.417,67.417 h -13.877 v -13.877 c 0,-37.173 30.243,-67.417 67.417,-67.417 z m -25.519,-55.411 c 0,26.433 -21.505,47.939 -47.939,47.939 h -7.836 v -7.836 c 0,-35.345 24.764,-47.939 47.939,-47.939 h 7.836 z m -28.315,-31.65601 c -5.544,5.59001 -13.903,12.25401 -22.239,12.25401 h -5.221 v -5.222 c 0,-21.78801 17.725,-39.51301 39.514,-39.51301 h 4.372 c -2.06,12.308 -7.796,23.779 -16.426,32.481 z m -1.505,-69.996996 v 0.775 c 0,13.884 -11.296,25.179996 -25.18,25.179996 h -0.775 v -0.775 c 0,-13.883996 11.296,-25.179996 25.18,-25.179996 z m -37.573,-48.532 1.419,-1.42 1.42,1.42 c 11.366,11.366 11.366,29.859 0,41.224 l -1.42,1.421 -1.42,-1.42 c -11.366,-11.365 -11.366,-29.859 0.001,-41.225 z m -34.735,48.532 h 0.775 c 13.884,0 25.18,11.296 25.18,25.179996 v 0.775 h -0.775 c -13.884,0 -25.18,-11.295996 -25.18,-25.179996 z m -13.559,37.516996 c 21.788,0 39.514,17.725 39.514,39.51301 v 5.222 h -5.222 c -8.337,0 -16.695,-6.664 -22.239,-12.25501 -8.629,-8.701 -14.365,-20.173 -16.425,-32.48 z m -16.261,56.30101 h 7.836 c 23.176,0 47.939,12.594 47.939,47.939 v 7.836 h -7.836 c -26.433,0 -47.939,-21.505 -47.939,-47.939 z m -25.519,63.246 h 13.877 c 37.173,0 67.417,30.243 67.417,67.417 v 13.877 h -13.877 c -37.173,0 -67.417,-30.243 -67.417,-67.417 z m -17.236,107.585 v -17.959 h 17.958 c 44.428,0 80.572,36.144 80.572,80.572 v 2.429 l -51.082,-51.082 c -3.983,-3.983 -10.441,-3.983 -14.425,0 -3.983,3.983 -3.983,10.441 0,14.425 l 52.186,52.186 h -4.639 c -44.426,10e-4 -80.57,-36.144 -80.57,-80.571 z m 217.459,0 c 0,44.428 -36.144,80.572 -80.572,80.572 h -3.534 l 40.034,-40.034 c 3.983,-3.983 3.983,-10.441 0,-14.425 -3.983,-3.982 -10.441,-3.982 -14.425,0 l -40.034,40.034 v -3.534 c 0,-44.428 36.144,-80.572 80.572,-80.572 h 17.958 v 17.959 z"
         id="path12" /></g><g
       id="g8"
       transform="matrix(0.23344608,0,0,0.21619421,35.773709,110.37769)"><path
         style="fill:#f95428"
         d="m 229.153,111.483 c 82.62,0 140.19,82.01 112.12,159.72 l -25.52,70.61 c -2.11,5.84 -4.84,11.34 -8.1,16.42 -4.46,6.93 -9.92,13.1 -16.13,18.32 h -0.01 c -5.62,4.73 -11.86,8.68 -18.55,11.76 -15.62,7.16 -33.49,7.61 -49.67,1.88 -3.83,-1.35 -7.74,-2.34 -11.7,-2.99 -3.56,-0.58 -7.17,-0.86 -10.76,-0.86 -7.6,0 -15.19,1.28 -22.46,3.85 -5.39,1.9 -10.95,3.13 -16.56,3.65 -11.26,1.04 -22.69,-0.75 -33.11,-5.53 -19.51,-8.95 -35.18,-25.43 -42.8,-46.5 l -25.51,-70.61 c -28.08,-77.71 29.49,-159.72 112.11,-159.72 h 28.33 z"
         id="path2-4" /><g
         id="g3">
		<path
   style="fill:#e54728"
   d="m 153.903,341.813 -25.51,-70.61 c -27.432,-75.917 26.883,-155.922 106.435,-159.576 -1.879,-0.086 -3.768,-0.145 -5.675,-0.145 h -28.32 -28.33 c -82.62,0 -140.19,82.01 -112.11,159.72 l 25.51,70.61 c 7.62,21.07 23.29,37.55 42.8,46.5 10.42,4.78 21.85,6.57 33.11,5.53 5.61,-0.52 11.17,-1.75 16.56,-3.65 4.932,-1.743 10.013,-2.878 15.143,-3.438 -18.022,-9.232 -32.413,-25.033 -39.613,-44.941 z"
   id="path3-4" />
	</g><g
         id="g6"><path
           style="fill:#9ad14b"
           d="m 200.383,90.653 c -45.92,0 -83.15,-37.23 -83.15,-83.15 22.96,0 43.75,9.31 58.8,24.36 15.04,15.04 24.35,35.829 24.35,58.79 z"
           id="path1-51" /><path
           style="fill:#90bc42"
           d="m 200.383,90.653 c -45.92,0 -83.15,-37.23 -83.15,-83.15 z"
           id="path5-7" /></g><path
         style="fill:#9ad14b"
         d="m 315.44611,67.028172 c -19.83677,41.414358 -69.4966,58.908558 -110.91096,39.071778 9.91839,-20.707173 27.29587,-35.435486 47.37056,-42.507408 20.06134,-7.067223 42.83232,-6.483188 63.5404,3.43563 z"
         id="path1-0" /><g
         id="g7"
         transform="translate(131.30653,17.796123)"><path
           style="fill:#333333"
           d="m 203.47937,146.83354 c -24.05,-34.261 -61.853,-53.909995 -103.712998,-53.909995 h -20.819 v -0.533 c 0,-21.625 10.714,-41.772 28.658998,-53.896 3.433,-2.319 4.335,-6.981 2.017,-10.413 -2.318,-3.432 -6.98,-4.334 -10.413998,-2.017 -10.361,7 -18.762,16.174 -24.762,26.691 -11.465998,-36.926 -45.949998,-63.818 -86.597998,-63.818 -4.142,0 -7.500001,3.3579999 -7.500001,7.4999999 0,47.6800001 37.001001,86.8790001 83.797001,90.3950001 -0.128,1.843 -0.199,3.695 -0.199,5.559 v 0.533 h -20.829 c -41.8550005,0 -79.653001,19.647995 -103.702,53.906995 -24.05,34.26 -29.686,76.488 -15.463,115.856 v 0 l 25.517,70.613 c 8.196,22.679 24.787999,40.708 46.7189995,50.764 11.402,5.23 24.1730005,7.363 36.9290005,6.178 6.216,-0.575 12.395,-1.935 18.366,-4.042 6.434,-2.271 13.15,-3.423 19.962998,-3.423 3.217,0 6.432,0.257 9.551,0.764 3.571,0.583 7.072,1.477 10.405,2.656 8.292,2.936 16.827998,4.398 25.279998,4.398 10.335,0 20.545,-2.186 30.027,-6.535 7.232,-3.325 13.963,-7.575 20.012,-12.637 0.082,-0.063 0.163,-0.128 0.242,-0.195 6.859,-5.767 12.785,-12.5 17.611,-20.009 3.604,-5.607 6.582,-11.637 8.849,-17.92 l 25.517,-70.613 c 14.223,-39.367 8.587,-81.593 -15.462,-115.853 z M 17.507374,49.932545 C 5.0993735,37.524545 -2.4676265,21.565545 -4.2446265,4.3485447 31.172374,8.0415447 59.399374,36.267545 63.091374,71.685545 c -17.218,-1.778 -33.177,-9.346 -45.584,-21.753 z m 187.326996,207.657995 -25.518,70.616 c -1.887,5.228 -4.363,10.243 -7.359,14.904 -3.961,6.163 -8.814,11.698 -14.428,16.454 -0.08,0.062 -0.159,0.125 -0.236,0.191 -5.078,4.281 -10.747,7.874 -16.842,10.676 -13.666,6.268 -29.308,6.847 -44.042998,1.628 -4.173,-1.476 -8.545,-2.593 -12.999,-3.32 -3.917,-0.637 -7.942,-0.959 -11.962,-0.959 -8.517998,0 -16.914998,1.439 -24.954998,4.278 -4.806,1.695 -9.771,2.789 -14.761,3.25 -10.146,0.944 -20.274,-0.741 -29.2900005,-4.876 -18.2449995,-8.366 -32.0470005,-23.363 -38.8650005,-42.228 l -25.516999,-70.613 v 0 c -12.54,-34.708 -7.57,-71.937 13.632,-102.142 21.201999,-30.203 54.5249995,-47.525 91.425,-47.525 h 56.647998 c 36.905998,0 70.232998,17.323 91.435998,47.528 21.204,30.203 26.173,67.431 13.634,102.138 z"
           id="path6-0"
           sodipodi:nodetypes="cscscsccsscscscscccccsccscccccccsccsccccccccscccccscsscc" /><path
           d="M 80.496363,63.57167 C 106.23441,34.717696 148.76243,24.534713 185.75552,41.380218 c 3.76956,1.716544 5.43399,6.164242 3.71745,9.933809 C 169.71323,94.70683 119.79421,115.04711 75.748812,98.85358 M 133.48646,84.599802 c 16.43449,-6.150149 29.93489,-17.538233 38.68725,-32.470716 -33.76291,-11.316714 -71.14938,2.673372 -89.18748,33.376671 16.406671,5.517423 34.06706,5.243698 50.50023,-0.905955 z"
           style="fill:#333333"
           id="path1-9" /></g></g></g><style
     id="style1">
        .cog {
            transform-box: fill-box;
            transform-origin: center;
            animation: rotate 60s linear infinite;
            transform-origin: center;
        }
    
        @keyframes rotate {
            from {
                transform: rotate(0deg);
            }
            to {
                transform: rotate(360deg);
            }
        }

    </style></svg>
