<?xml version="1.0" encoding="UTF-8" standalone="no"?>
<svg
   viewBox="0 0 61.681999 32.493"
   width="61.681999"
   height="32.493"
   version="1.1"
   id="svg1"
   sodipodi:docname="image-not-available.svg"
   inkscape:version="1.3.2 (091e20e, 2023-11-25, custom)"
   xmlns:inkscape="http://www.inkscape.org/namespaces/inkscape"
   xmlns:sodipodi="http://sodipodi.sourceforge.net/DTD/sodipodi-0.dtd"
   xmlns="http://www.w3.org/2000/svg"
   xmlns:svg="http://www.w3.org/2000/svg">
  <defs
     id="defs1" />
  <sodipodi:namedview
     id="namedview1"
     pagecolor="#ffffff"
     bordercolor="#000000"
     borderopacity="0.25"
     inkscape:showpageshadow="2"
     inkscape:pageopacity="0.0"
     inkscape:pagecheckerboard="0"
     inkscape:deskcolor="#d1d1d1"
     inkscape:zoom="11.81"
     inkscape:cx="50"
     inkscape:cy="50"
     inkscape:window-width="2560"
     inkscape:window-height="1377"
     inkscape:window-x="1912"
     inkscape:window-y="-8"
     inkscape:window-maximized="1"
     inkscape:current-layer="svg1" />
  <g
     id="g1"
     style="fill:#3b3b3b;fill-opacity:1"
     transform="translate(-7.8243652,-29.141401)">
    <path
       d="m 45.994436,32.051572 c -0.358595,0.0019 -0.688722,0.195662 -0.865234,0.507812 L 36.291311,48.1629 29.418264,42.487119 c -0.46172,-0.382349 -1.153772,-0.275387 -1.478515,0.228515 L 17.66436,58.698056 c -0.03781,0.05587 -0.06988,0.115414 -0.0957,0.177735 -5.367508,0.324909 -8.8691408,0.763672 -8.8691408,0.763672 -1.322916,0.167969 -1.070963,2.152344 0.251953,1.984375 0,0 9.7078668,-1.239685 21.7421878,-1.072266 0.160975,0.04583 0.330877,0.05053 0.49414,0.01367 1.593521,0.02712 3.217056,0.07299 4.871094,0.15625 14.628354,0.736316 32.554688,-1.546875 32.554688,-1.546875 1.240902,-0.133595 1.16565,-1.962918 -0.08203,-1.994141 -0.05682,-0.0016 -0.113661,0.0017 -0.169921,0.0098 0,0 -2.058999,0.252274 -5.171875,0.554687 l -5.029297,-7.761718 c -0.0502,-0.249129 -0.193358,-0.469803 -0.400391,-0.617188 l -5.859375,-9.042969 c -0.05467,-0.185329 -0.161852,-0.350854 -0.308594,-0.476562 l -4.753906,-7.337891 c -0.185027,-0.286134 -0.503007,-0.458373 -0.84375,-0.457031 z m 0.0625,2.927734 3.542969,5.46875 -1.183594,1.035157 c -1.003929,0.878905 0.314431,2.384764 1.31836,1.505859 l 0.964843,-0.84375 3.355469,5.177734 -1.285156,0.841797 c -1.115885,0.730468 -0.02018,2.404296 1.095703,1.673828 l 1.277344,-0.835937 0.55664,0.857422 -2.58789,1.443359 c -1.165364,0.649739 -0.190755,2.397786 0.974609,1.748047 l 2.703125,-1.507812 0.722656,1.113281 -1.765625,0.855469 c -1.247249,0.565029 -0.342531,2.429113 0.873047,1.798828 l 1.988281,-0.964844 2.333985,3.603516 c -6.521823,0.576744 -16.240271,1.203346 -24.78125,0.773437 -1.174522,-0.05912 -2.332045,-0.0986 -3.478516,-0.128906 l 1.585938,-2.800781 1.710937,1.18164 c 1.097717,0.758147 2.234436,-0.888337 1.136719,-1.646484 l -1.859375,-1.28125 0.398437,-0.703125 2.277344,1.384765 c 1.144408,0.713827 2.199476,-1.021481 1.039065,-1.708984 l -2.330078,-1.416016 z m -17.042969,9.765625 6.275391,5.185547 -4.882813,8.621094 c -3.794341,-0.04521 -7.303381,0.04667 -10.394531,0.193359 l 4.88086,-7.589843 1.146484,1.134765 c 0.947916,0.938802 2.356119,-0.483073 1.408203,-1.421875 l -1.449219,-1.433594 z"
       id="path1"
       sodipodi:nodetypes="cccccccsccccccccccccccccccccccccccccscccccccccccccccccccccccc"
       style="fill:#3b3b3b;fill-opacity:1" />
    <path
       d="m 33.111269,29.142755 c -0.469981,0.0085 -0.958362,0.05755 -1.451172,0.162109 -0.985622,0.209127 -2.000457,0.652507 -2.800782,1.476563 -0.800323,0.824056 -1.340438,2.013357 -1.455078,3.513672 -0.222879,2.916889 1.062941,5.031931 2.972657,5.857422 1.909716,0.82549 4.226943,0.486407 6.207031,-0.681641 1.038064,-0.612577 1.698371,-1.544737 2.003906,-2.521484 0.305535,-0.976748 0.292243,-1.989202 0.128906,-2.925782 -0.163336,-0.936579 -0.478864,-1.804263 -0.855468,-2.521484 -0.376605,-0.717221 -0.739773,-1.283625 -1.38086,-1.667969 -0.541795,-0.325077 -1.198593,-0.498323 -2.03125,-0.611328 -0.416328,-0.0565 -0.86791,-0.08857 -1.33789,-0.08008 z m 0.03906,2.001953 c 0.35939,-0.0069 0.711329,0.01517 1.03125,0.05859 0.639844,0.08684 1.188827,0.29728 1.269531,0.345703 h 0.002 c -0.01809,-0.01084 0.357636,0.353268 0.636719,0.884766 0.279084,0.531498 0.53529,1.228798 0.658203,1.933593 0.122914,0.704796 0.11142,1.409654 -0.06836,1.984375 -0.179778,0.574722 -0.492346,1.030062 -1.113281,1.396485 -1.523491,0.89807 -3.243427,1.065933 -4.394532,0.568359 -1.151533,-0.49776 -1.951557,-1.53803 -1.773437,-3.86914 0.08586,-1.123686 0.435309,-1.798588 0.896484,-2.273438 0.461176,-0.47485 1.079419,-0.763611 1.779297,-0.912109 0.34994,-0.07425 0.716782,-0.110248 1.076172,-0.117188 z"
       id="path1-0"
       style="fill:#3b3b3b;fill-opacity:1" />
  </g>
</svg>
