<?xml version="1.0" standalone="no"?>
<!DOCTYPE svg PUBLIC "-//W3C//DTD SVG 20010904//EN"
 "http://www.w3.org/TR/2001/REC-SVG-20010904/DTD/svg10.dtd">
<svg version="1.0" xmlns="http://www.w3.org/2000/svg"
 width="200.000000pt" height="200.000000pt" viewBox="0 0 200.000000 200.000000"
 preserveAspectRatio="xMidYMid meet">

<g transform="translate(0.000000,200.000000) scale(0.100000,-0.100000)"
fill="#000000" stroke="none">
<path d="M864 1699 c-29 -8 -32 -14 -38 -61 -9 -66 -47 -133 -89 -155 -47 -25
-123 -23 -175 5 -24 12 -52 20 -62 17 -32 -10 -140 -165 -140 -200 0 -10 18
-37 39 -60 50 -54 68 -113 51 -168 -14 -47 -78 -113 -119 -122 -41 -9 -50 -28
-40 -84 10 -53 47 -160 61 -178 7 -8 35 -13 78 -12 106 2 164 -35 187 -121 10
-36 10 -43 -2 -121 l-7 -47 44 -26 c52 -30 151 -66 183 -66 16 0 31 15 53 49
71 115 200 121 290 15 20 -24 44 -44 53 -44 26 0 101 34 164 74 60 39 64 51
40 109 -21 51 -19 95 8 147 29 59 74 84 161 90 l70 5 17 59 c24 81 34 183 20
200 -7 8 -27 17 -47 20 -39 8 -98 55 -120 97 -16 32 -18 96 -5 132 5 14 24 41
41 61 24 26 31 42 26 59 -8 32 -106 148 -142 169 -29 17 -31 17 -65 -6 -47
-32 -105 -47 -153 -39 -54 8 -122 76 -131 130 -14 84 -13 83 -122 82 -54 0
-112 -5 -129 -10z m609 -287 c21 -19 22 -41 1 -70 -30 -44 -104 -16 -104 39 0
24 47 59 68 52 9 -3 25 -13 35 -21z m-370 -189 c48 -19 120 -99 135 -151 27
-90 9 -171 -55 -242 -101 -113 -265 -113 -366 0 -89 99 -90 228 -4 326 78 88
177 111 290 67z"/>
</g>
</svg>
